<svg width="24" height="24" viewBox="0 0 24 24" fill="black" xmlns="http://www.w3.org/2000/svg">
<path d="M1 4.5C1 3.67172 1.67172 3 2.5 3H20.5C21.3297 3 22 3.67172 22 4.5C22 5.32969 21.3297 6 20.5 6H2.5C1.67172 6 1 5.32969 1 4.5ZM1 12C1 11.1703 1.67172 10.5 2.5 10.5H20.5C21.3297 10.5 22 11.1703 22 12C22 12.8297 21.3297 13.5 20.5 13.5H2.5C1.67172 13.5 1 12.8297 1 12ZM20.5 21H2.5C1.67172 21 1 20.3297 1 19.5C1 18.6703 1.67172 18 2.5 18H20.5C21.3297 18 22 18.6703 22 19.5C22 20.3297 21.3297 21 20.5 21Z"/>
</svg>
