<svg width="24" height="24" viewBox="0 0 24 24" fill="black" xmlns="http://www.w3.org/2000/svg">
<path d="M22.735 9.49375L20.6088 8.785L21.61 6.7825C21.7115 6.5729 21.7455 6.33696 21.7072 6.10725C21.6689 5.87753 21.5602 5.66536 21.3963 5.5L19 3.10375C18.8338 2.93735 18.6196 2.82724 18.3875 2.7889C18.1554 2.75055 17.9172 2.78591 17.7063 2.89L15.7038 3.89125L14.995 1.765C14.9202 1.54337 14.7781 1.35058 14.5885 1.21347C14.399 1.07636 14.1714 1.00174 13.9375 1H10.5625C10.3267 0.999395 10.0966 1.07293 9.9048 1.2102C9.71301 1.34748 9.56923 1.54156 9.49375 1.765L8.785 3.89125L6.7825 2.89C6.5729 2.78851 6.33696 2.75456 6.10725 2.79284C5.87753 2.83113 5.66536 2.93976 5.5 3.10375L3.10375 5.5C2.93735 5.66624 2.82724 5.88045 2.7889 6.11252C2.75055 6.34458 2.78591 6.58283 2.89 6.79375L3.89125 8.79625L1.765 9.505C1.54337 9.57986 1.35058 9.72194 1.21347 9.91147C1.07636 10.101 1.00174 10.3286 1 10.5625V13.9375C0.999395 14.1734 1.07293 14.4034 1.2102 14.5952C1.34748 14.787 1.54156 14.9308 1.765 15.0063L3.89125 15.715L2.89 17.7175C2.78851 17.9271 2.75456 18.163 2.79284 18.3928C2.83113 18.6225 2.93976 18.8346 3.10375 19L5.5 21.3963C5.66624 21.5627 5.88045 21.6728 6.11252 21.7111C6.34458 21.7495 6.58283 21.7141 6.79375 21.61L8.79625 20.6088L9.505 22.735C9.58048 22.9585 9.72426 23.1525 9.91605 23.2898C10.1078 23.4271 10.3379 23.5006 10.5738 23.5H13.9488C14.1846 23.5006 14.4147 23.4271 14.6065 23.2898C14.7982 23.1525 14.942 22.9585 15.0175 22.735L15.7263 20.6088L17.7288 21.61C17.937 21.7089 18.1707 21.7415 18.398 21.7033C18.6254 21.665 18.8355 21.5579 19 21.3963L21.3963 19C21.5627 18.8338 21.6728 18.6196 21.7111 18.3875C21.7495 18.1554 21.7141 17.9172 21.61 17.7063L20.6088 15.7038L22.735 14.995C22.9566 14.9202 23.1494 14.7781 23.2865 14.5885C23.4236 14.399 23.4983 14.1714 23.5 13.9375V10.5625C23.5006 10.3267 23.4271 10.0966 23.2898 9.9048C23.1525 9.71301 22.9585 9.56923 22.735 9.49375ZM21.25 13.1275L19.9 13.5775C19.5896 13.6782 19.3048 13.8452 19.0653 14.067C18.8259 14.2888 18.6376 14.56 18.5134 14.8618C18.3892 15.1636 18.3322 15.4888 18.3463 15.8149C18.3604 16.1409 18.4453 16.46 18.595 16.75L19.2363 18.0325L17.9988 19.27L16.75 18.595C16.4615 18.4513 16.1455 18.3712 15.8234 18.3602C15.5012 18.3492 15.1805 18.4076 14.8829 18.5313C14.5852 18.6551 14.3177 18.8413 14.0983 19.0774C13.8789 19.3136 13.7128 19.5941 13.6113 19.9L13.1613 21.25H11.3725L10.9225 19.9C10.8218 19.5896 10.6548 19.3048 10.433 19.0653C10.2112 18.8259 9.94005 18.6376 9.63823 18.5134C9.3364 18.3892 9.01119 18.3322 8.68513 18.3463C8.35908 18.3604 8.03999 18.4453 7.75 18.595L6.4675 19.2363L5.23 17.9988L5.905 16.75C6.05473 16.46 6.13959 16.1409 6.15368 15.8149C6.16777 15.4888 6.11076 15.1636 5.98661 14.8618C5.86246 14.56 5.67413 14.2888 5.43469 14.067C5.19526 13.8452 4.91044 13.6782 4.6 13.5775L3.25 13.1275V11.3725L4.6 10.9225C4.91044 10.8218 5.19526 10.6548 5.43469 10.433C5.67413 10.2112 5.86246 9.94005 5.98661 9.63823C6.11076 9.3364 6.16777 9.01119 6.15368 8.68513C6.13959 8.35908 6.05473 8.03999 5.905 7.75L5.26375 6.50125L6.50125 5.26375L7.75 5.905C8.03999 6.05473 8.35908 6.13959 8.68513 6.15368C9.01119 6.16777 9.3364 6.11076 9.63823 5.98661C9.94005 5.86246 10.2112 5.67413 10.433 5.43469C10.6548 5.19526 10.8218 4.91044 10.9225 4.6L11.3725 3.25H13.1275L13.5775 4.6C13.6782 4.91044 13.8452 5.19526 14.067 5.43469C14.2888 5.67413 14.56 5.86246 14.8618 5.98661C15.1636 6.11076 15.4888 6.16777 15.8149 6.15368C16.1409 6.13959 16.46 6.05473 16.75 5.905L18.0325 5.26375L19.27 6.50125L18.595 7.75C18.4513 8.0385 18.3712 8.35452 18.3602 8.67665C18.3492 8.99879 18.4076 9.31952 18.5313 9.61715C18.6551 9.91477 18.8413 10.1823 19.0774 10.4017C19.3136 10.6211 19.5941 10.7872 19.9 10.8888L21.25 11.3388V13.1275ZM12.25 7.75C11.36 7.75 10.49 8.01392 9.74994 8.50839C9.00992 9.00286 8.43314 9.70566 8.09255 10.5279C7.75195 11.3502 7.66284 12.255 7.83647 13.1279C8.0101 14.0008 8.43869 14.8026 9.06802 15.432C9.69736 16.0613 10.4992 16.4899 11.3721 16.6635C12.245 16.8372 13.1498 16.7481 13.9721 16.4075C14.7943 16.0669 15.4971 15.4901 15.9916 14.7501C16.4861 14.01 16.75 13.14 16.75 12.25C16.75 11.0565 16.2759 9.91194 15.432 9.06802C14.5881 8.22411 13.4435 7.75 12.25 7.75V7.75ZM12.25 14.5C11.805 14.5 11.37 14.368 11 14.1208C10.63 13.8736 10.3416 13.5222 10.1713 13.111C10.001 12.6999 9.95642 12.2475 10.0432 11.8111C10.1301 11.3746 10.3443 10.9737 10.659 10.659C10.9737 10.3443 11.3746 10.1301 11.8111 10.0432C12.2475 9.95642 12.6999 10.001 13.111 10.1713C13.5222 10.3416 13.8736 10.63 14.1208 11C14.368 11.37 14.5 11.805 14.5 12.25C14.5 12.8467 14.2629 13.419 13.841 13.841C13.419 14.2629 12.8467 14.5 12.25 14.5Z"/>
</svg>
