<svg width="24" height="24" viewBox="0 0 24 24" fill="black" xmlns="http://www.w3.org/2000/svg">
<path d="M8.18 3.99999L3 3.99999C2.73478 3.99999 2.48043 4.10535 2.29289 4.29289C2.10536 4.48042 2 4.73478 2 4.99999C2 5.26521 2.10536 5.51957 2.29289 5.7071C2.48043 5.89464 2.73478 5.99999 3 5.99999L8.18 5.99999C8.3902 6.57915 8.77363 7.07953 9.27816 7.43315C9.7827 7.78677 10.3839 7.97647 11 7.97647C11.6161 7.97647 12.2173 7.78677 12.7218 7.43315C13.2264 7.07953 13.6098 6.57915 13.82 5.99999L21 5.99999C21.2652 5.99999 21.5196 5.89464 21.7071 5.7071C21.8946 5.51956 22 5.26521 22 4.99999C22 4.73478 21.8946 4.48042 21.7071 4.29289C21.5196 4.10535 21.2652 3.99999 21 3.99999L13.82 3.99999C13.6098 3.42084 13.2264 2.92045 12.7218 2.56683C12.2173 2.21322 11.6161 2.02352 11 2.02352C10.3839 2.02352 9.7827 2.21322 9.27816 2.56684C8.77363 2.92045 8.3902 3.42084 8.18 3.99999V3.99999ZM12 4.99999C12 5.19778 11.9414 5.39112 11.8315 5.55556C11.7216 5.72001 11.5654 5.84819 11.3827 5.92387C11.2 5.99956 10.9989 6.01936 10.8049 5.98078C10.6109 5.94219 10.4327 5.84695 10.2929 5.7071C10.153 5.56725 10.0578 5.38907 10.0192 5.19509C9.98063 5.0011 10.0004 4.80004 10.0761 4.61731C10.1518 4.43459 10.28 4.2784 10.4444 4.16852C10.6089 4.05864 10.8022 3.99999 11 3.99999C11.2652 3.99999 11.5196 4.10535 11.7071 4.29289C11.8946 4.48042 12 4.73478 12 4.99999ZM14.18 11L3 11C2.73478 11 2.48043 11.1054 2.29289 11.2929C2.10536 11.4804 2 11.7348 2 12C2 12.2652 2.10536 12.5196 2.29289 12.7071C2.48043 12.8946 2.73478 13 3 13L14.18 13C14.3902 13.5791 14.7736 14.0795 15.2782 14.4332C15.7827 14.7868 16.3839 14.9765 17 14.9765C17.6161 14.9765 18.2173 14.7868 18.7218 14.4332C19.2264 14.0795 19.6098 13.5791 19.82 13L21 13C21.2652 13 21.5196 12.8946 21.7071 12.7071C21.8946 12.5196 22 12.2652 22 12C22 11.7348 21.8946 11.4804 21.7071 11.2929C21.5196 11.1054 21.2652 11 21 11L19.82 11C19.6098 10.4208 19.2264 9.92045 18.7218 9.56684C18.2173 9.21322 17.6161 9.02352 17 9.02352C16.3839 9.02352 15.7827 9.21322 15.2782 9.56684C14.7736 9.92045 14.3902 10.4208 14.18 11ZM18 12C18 12.1978 17.9414 12.3911 17.8315 12.5556C17.7216 12.72 17.5654 12.8482 17.3827 12.9239C17.2 12.9996 16.9989 13.0194 16.8049 12.9808C16.6109 12.9422 16.4327 12.847 16.2929 12.7071C16.153 12.5672 16.0578 12.3891 16.0192 12.1951C15.9806 12.0011 16.0004 11.8 16.0761 11.6173C16.1518 11.4346 16.28 11.2784 16.4444 11.1685C16.6089 11.0586 16.8022 11 17 11C17.2652 11 17.5196 11.1054 17.7071 11.2929C17.8946 11.4804 18 11.7348 18 12ZM6.18 18L3 18C2.73478 18 2.48043 18.1054 2.29289 18.2929C2.10536 18.4804 2 18.7348 2 19C2 19.2652 2.10536 19.5196 2.29289 19.7071C2.48043 19.8946 2.73478 20 3 20L6.18 20C6.3902 20.5791 6.77363 21.0795 7.27817 21.4332C7.7827 21.7868 8.38388 21.9765 9 21.9765C9.61612 21.9765 10.2173 21.7868 10.7218 21.4332C11.2264 21.0795 11.6098 20.5791 11.82 20L21 20C21.2652 20 21.5196 19.8946 21.7071 19.7071C21.8946 19.5196 22 19.2652 22 19C22 18.7348 21.8946 18.4804 21.7071 18.2929C21.5196 18.1054 21.2652 18 21 18L11.82 18C11.6098 17.4208 11.2264 16.9205 10.7218 16.5668C10.2173 16.2132 9.61612 16.0235 9 16.0235C8.38388 16.0235 7.7827 16.2132 7.27817 16.5668C6.77363 16.9205 6.3902 17.4208 6.18 18V18ZM10 19C10 19.1978 9.94135 19.3911 9.83147 19.5556C9.72159 19.72 9.56541 19.8482 9.38268 19.9239C9.19996 19.9996 8.99889 20.0194 8.80491 19.9808C8.61093 19.9422 8.43275 19.847 8.29289 19.7071C8.15304 19.5672 8.0578 19.3891 8.01921 19.1951C7.98063 19.0011 8.00043 18.8 8.07612 18.6173C8.15181 18.4346 8.27998 18.2784 8.44443 18.1685C8.60888 18.0586 8.80222 18 9 18C9.26522 18 9.51957 18.1054 9.70711 18.2929C9.89464 18.4804 10 18.7348 10 19Z" />
</svg>
